<svg xmlns="http://www.w3.org/2000/svg">
   <defs>
      <symbol id="icon-bars-solid" viewBox="0 0 448 512" aria-hidden="true" focusable="false" role="img" xmlns="http://www.w3.org/2000/svg">
         <path fill="currentColor" d="M16 132h416c8.837 0 16-7.163 16-16V76c0-8.837-7.163-16-16-16H16C7.163 60 0 67.163 0 76v40c0 8.837 7.163 16 16 16zm0 160h416c8.837 0 16-7.163 16-16v-40c0-8.837-7.163-16-16-16H16c-8.837 0-16 7.163-16 16v40c0 8.837 7.163 16 16 16zm0 160h416c8.837 0 16-7.163 16-16v-40c0-8.837-7.163-16-16-16H16c-8.837 0-16 7.163-16 16v40c0 8.837 7.163 16 16 16z"></path>
      </symbol>

      <symbol id="icon-box-open-solid" viewBox="0 0 640 512" aria-hidden="true" focusable="false" role="img" xmlns="http://www.w3.org/2000/svg">
         <path fill="currentColor" d="M425.7 256c-16.9 0-32.8-9-41.4-23.4L320 126l-64.2 106.6c-8.7 14.5-24.6 23.5-41.5 23.5-4.5 0-9-.6-13.3-1.9L64 215v178c0 14.7 10 27.5 24.2 31l216.2 54.1c10.2 2.5 20.9 2.5 31 0L551.8 424c14.2-3.6 24.2-16.4 24.2-31V215l-137 39.1c-4.3 1.3-8.8 1.9-13.3 1.9zm212.6-112.2L586.8 41c-3.1-6.2-9.8-9.8-16.7-8.9L320 64l91.7 152.1c3.8 6.3 11.4 9.3 18.5 7.3l197.9-56.5c9.9-2.9 14.7-13.9 10.2-23.1zM53.2 41L1.7 143.8c-4.6 9.2.3 20.2 10.1 23l197.9 56.5c7.1 2 14.7-1 18.5-7.3L320 64 69.8 32.1c-6.9-.8-13.5 2.7-16.6 8.9z"></path>
      </symbol>

      <symbol id="icon-calendar-alt-regular" viewBox="0 0 448 512" aria-hidden="true" focusable="false" role="img" xmlns="http://www.w3.org/2000/svg">
         <path fill="currentColor" d="M148 288h-40c-6.6 0-12-5.4-12-12v-40c0-6.6 5.4-12 12-12h40c6.6 0 12 5.4 12 12v40c0 6.6-5.4 12-12 12zm108-12v-40c0-6.6-5.4-12-12-12h-40c-6.6 0-12 5.4-12 12v40c0 6.6 5.4 12 12 12h40c6.6 0 12-5.4 12-12zm96 0v-40c0-6.6-5.4-12-12-12h-40c-6.6 0-12 5.4-12 12v40c0 6.6 5.4 12 12 12h40c6.6 0 12-5.4 12-12zm-96 96v-40c0-6.6-5.4-12-12-12h-40c-6.6 0-12 5.4-12 12v40c0 6.6 5.4 12 12 12h40c6.6 0 12-5.4 12-12zm-96 0v-40c0-6.6-5.4-12-12-12h-40c-6.6 0-12 5.4-12 12v40c0 6.6 5.4 12 12 12h40c6.6 0 12-5.4 12-12zm192 0v-40c0-6.6-5.4-12-12-12h-40c-6.6 0-12 5.4-12 12v40c0 6.6 5.4 12 12 12h40c6.6 0 12-5.4 12-12zm96-260v352c0 26.5-21.5 48-48 48H48c-26.5 0-48-21.5-48-48V112c0-26.5 21.5-48 48-48h48V12c0-6.6 5.4-12 12-12h40c6.6 0 12 5.4 12 12v52h128V12c0-6.6 5.4-12 12-12h40c6.6 0 12 5.4 12 12v52h48c26.5 0 48 21.5 48 48zm-48 346V160H48v298c0 3.3 2.7 6 6 6h340c3.3 0 6-2.7 6-6z"></path>
      </symbol>

      <symbol id="icon-calendar-plus-regular" viewBox="0 0 448 512" aria-hidden="true" focusable="false" role="img" xmlns="http://www.w3.org/2000/svg">
         <path fill="currentColor" d="M336 292v24c0 6.6-5.4 12-12 12h-76v76c0 6.6-5.4 12-12 12h-24c-6.6 0-12-5.4-12-12v-76h-76c-6.6 0-12-5.4-12-12v-24c0-6.6 5.4-12 12-12h76v-76c0-6.6 5.4-12 12-12h24c6.6 0 12 5.4 12 12v76h76c6.6 0 12 5.4 12 12zm112-180v352c0 26.5-21.5 48-48 48H48c-26.5 0-48-21.5-48-48V112c0-26.5 21.5-48 48-48h48V12c0-6.6 5.4-12 12-12h40c6.6 0 12 5.4 12 12v52h128V12c0-6.6 5.4-12 12-12h40c6.6 0 12 5.4 12 12v52h48c26.5 0 48 21.5 48 48zm-48 346V160H48v298c0 3.3 2.7 6 6 6h340c3.3 0 6-2.7 6-6z"></path>
      </symbol>

      <symbol id="icon-check-circle-regular" viewBox="0 0 512 512" aria-hidden="true" focusable="false" role="img" xmlns="http://www.w3.org/2000/svg">
         <path fill="currentColor" d="M256 8C119.033 8 8 119.033 8 256s111.033 248 248 248 248-111.033 248-248S392.967 8 256 8zm0 48c110.532 0 200 89.451 200 200 0 110.532-89.451 200-200 200-110.532 0-200-89.451-200-200 0-110.532 89.451-200 200-200m140.204 130.267l-22.536-22.718c-4.667-4.705-12.265-4.736-16.97-.068L215.346 303.697l-59.792-60.277c-4.667-4.705-12.265-4.736-16.97-.069l-22.719 22.536c-4.705 4.667-4.736 12.265-.068 16.971l90.781 91.516c4.667 4.705 12.265 4.736 16.97.068l172.589-171.204c4.704-4.668 4.734-12.266.067-16.971z"></path>
      </symbol>

      <symbol id="icon-chevron-down-double-solid" viewBox="0 0 284.929 284.929" xmlns="http://www.w3.org/2000/svg" xmlns:xlink="http://www.w3.org/1999/xlink">
         <path fill="currentColor" d="M135.899,167.877c1.902,1.902,4.093,2.851,6.567,2.851s4.661-0.948,6.562-2.851L282.082,34.829c1.902-1.903,2.847-4.093,2.847-6.567s-0.951-4.665-2.847-6.567L267.808,7.417c-1.902-1.903-4.093-2.853-6.57-2.853c-2.471,0-4.661,0.95-6.563,2.853L142.466,119.622L30.262,7.417c-1.903-1.903-4.093-2.853-6.567-2.853c-2.475,0-4.665,0.95-6.567,2.853L2.856,21.695C0.95,23.597,0,25.784,0,28.262c0,2.478,0.953,4.665,2.856,6.567L135.899,167.877z" />
         <path fill="currentColor" d="M267.808,117.053c-1.902-1.903-4.093-2.853-6.57-2.853c-2.471,0-4.661,0.95-6.563,2.853L142.466,229.257L30.262,117.05c-1.903-1.903-4.093-2.853-6.567-2.853c-2.475,0-4.665,0.95-6.567,2.853L2.856,131.327C0.95,133.23,0,135.42,0,137.893c0,2.474,0.953,4.665,2.856,6.57l133.043,133.046c1.902,1.903,4.093,2.854,6.567,2.854s4.661-0.951,6.562-2.854l133.054-133.046c1.902-1.903,2.847-4.093,2.847-6.565c0-2.474-0.951-4.661-2.847-6.567L267.808,117.053z" />
      </symbol>

      <symbol id="icon-chevron-down-solid" viewBox="0 0 448 512" aria-hidden="true" focusable="false" role="img" xmlns="http://www.w3.org/2000/svg">
         <path fill="currentColor" d="M207.029 381.476L12.686 187.132c-9.373-9.373-9.373-24.569 0-33.941l22.667-22.667c9.357-9.357 24.522-9.375 33.901-.04L224 284.505l154.745-154.021c9.379-9.335 24.544-9.317 33.901.04l22.667 22.667c9.373 9.373 9.373 24.569 0 33.941L240.971 381.476c-9.373 9.372-24.569 9.372-33.942 0z"></path>
      </symbol>

      <symbol id="icon-chevron-left-double-solid" viewBox="0 0 284.929 284.929" xmlns="http://www.w3.org/2000/svg" xmlns:xlink="http://www.w3.org/1999/xlink">
         <path fill="currentColor" d="M165.304,142.468L277.517,30.267c1.902-1.903,2.847-4.093,2.847-6.567c0-2.475-0.951-4.665-2.847-6.567L263.239,2.857C261.337,0.955,259.146,0,256.676,0c-2.478,0-4.665,0.955-6.571,2.857L117.057,135.9c-1.903,1.903-2.853,4.093-2.853,6.567c0,2.475,0.95,4.664,2.853,6.567l133.048,133.043c1.903,1.906,4.086,2.851,6.564,2.851c2.478,0,4.66-0.947,6.563-2.851l14.277-14.267c1.902-1.903,2.851-4.094,2.851-6.57c0-2.472-0.948-4.661-2.851-6.564L165.304,142.468z" />
         <path fill="currentColor" d="M55.668,142.468L167.87,30.267c1.903-1.903,2.851-4.093,2.851-6.567c0-2.475-0.947-4.665-2.851-6.567L153.6,2.857C151.697,0.955,149.507,0,147.036,0c-2.478,0-4.668,0.955-6.57,2.857L7.417,135.9c-1.903,1.903-2.853,4.093-2.853,6.567c0,2.475,0.95,4.664,2.853,6.567l133.048,133.043c1.902,1.906,4.09,2.851,6.57,2.851c2.471,0,4.661-0.947,6.563-2.851l14.271-14.267c1.903-1.903,2.851-4.094,2.851-6.57c0-2.472-0.947-4.661-2.851-6.564L55.668,142.468z" />
      </symbol>

      <symbol id="icon-chevron-left-solid" viewBox="0 0 320 512" aria-hidden="true" focusable="false" role="img" xmlns="http://www.w3.org/2000/svg">
         <path fill="currentColor" d="M34.52 239.03L228.87 44.69c9.37-9.37 24.57-9.37 33.94 0l22.67 22.67c9.36 9.36 9.37 24.52.04 33.9L131.49 256l154.02 154.75c9.34 9.38 9.32 24.54-.04 33.9l-22.67 22.67c-9.37 9.37-24.57 9.37-33.94 0L34.52 272.97c-9.37-9.37-9.37-24.57 0-33.94z"></path>
      </symbol>

      <symbol id="icon-chevron-right-double-solid" viewBox="0 0 284.936 284.936" xmlns="http://www.w3.org/2000/svg" xmlns:xlink="http://www.w3.org/1999/xlink">
         <path fill="currentColor" d="M277.515,135.9L144.464,2.857C142.565,0.955,140.375,0,137.9,0c-2.472,0-4.659,0.955-6.562,2.857l-14.277,14.275c-1.903,1.903-2.853,4.089-2.853,6.567c0,2.478,0.95,4.664,2.853,6.567l112.207,112.204L117.062,254.677c-1.903,1.903-2.853,4.093-2.853,6.564c0,2.477,0.95,4.667,2.853,6.57l14.277,14.271c1.902,1.905,4.089,2.854,6.562,2.854c2.478,0,4.665-0.951,6.563-2.854l133.051-133.044c1.902-1.902,2.851-4.093,2.851-6.567S279.417,137.807,277.515,135.9z" />
         <path fill="currentColor" d="M170.732,142.471c0-2.474-0.947-4.665-2.857-6.571L34.833,2.857C32.931,0.955,30.741,0,28.267,0s-4.665,0.955-6.567,2.857L7.426,17.133C5.52,19.036,4.57,21.222,4.57,23.7c0,2.478,0.95,4.664,2.856,6.567L119.63,142.471L7.426,254.677c-1.906,1.903-2.856,4.093-2.856,6.564c0,2.477,0.95,4.667,2.856,6.57l14.273,14.271c1.903,1.905,4.093,2.854,6.567,2.854s4.664-0.951,6.567-2.854l133.042-133.044C169.785,147.136,170.732,144.945,170.732,142.471z" />
      </symbol>

      <symbol id="icon-chevron-right-solid" viewBox="0 0 320 512" aria-hidden="true" focusable="false" role="img" xmlns="http://www.w3.org/2000/svg">
         <path fill="currentColor" d="M285.476 272.971L91.132 467.314c-9.373 9.373-24.569 9.373-33.941 0l-22.667-22.667c-9.357-9.357-9.375-24.522-.04-33.901L188.505 256 34.484 101.255c-9.335-9.379-9.317-24.544.04-33.901l22.667-22.667c9.373-9.373 24.569-9.373 33.941 0L285.475 239.03c9.373 9.372 9.373 24.568.001 33.941z"></path>
      </symbol>

      <symbol id="icon-chevron-up-double-solid" viewBox="0 0 284.929 284.929" xmlns="http://www.w3.org/2000/svg" xmlns:xlink="http://www.w3.org/1999/xlink">
         <path fill="currentColor" d="M17.128,167.872c1.903,1.902,4.093,2.854,6.567,2.854c2.474,0,4.664-0.952,6.567-2.854L142.466,55.666l112.208,112.206c1.902,1.902,4.093,2.854,6.563,2.854c2.478,0,4.668-0.952,6.57-2.854l14.274-14.277c1.902-1.902,2.847-4.093,2.847-6.563c0-2.475-0.951-4.665-2.847-6.567L149.028,7.419c-1.901-1.906-4.088-2.853-6.562-2.853s-4.665,0.95-6.567,2.853L2.856,140.464C0.95,142.367,0,144.554,0,147.034c0,2.468,0.953,4.658,2.856,6.561L17.128,167.872z" />
         <path fill="currentColor" d="M149.028,117.055c-1.901-1.906-4.088-2.856-6.562-2.856s-4.665,0.953-6.567,2.856L2.856,250.1C0.95,252.003,0,254.192,0,256.67c0,2.472,0.953,4.661,2.856,6.564l14.272,14.276c1.903,1.903,4.093,2.848,6.567,2.848c2.474,0,4.664-0.951,6.567-2.848l112.204-112.209l112.208,112.209c1.902,1.903,4.093,2.852,6.563,2.852c2.478,0,4.668-0.948,6.57-2.852l14.274-14.276c1.902-1.903,2.847-4.093,2.847-6.564c0-2.478-0.951-4.667-2.847-6.57L149.028,117.055z" />
      </symbol>

      <symbol id="icon-chevron-up-solid" viewBox="0 0 448 512" aria-hidden="true" focusable="false" role="img" xmlns="http://www.w3.org/2000/svg">
         <path fill="currentColor" d="M240.971 130.524l194.343 194.343c9.373 9.373 9.373 24.569 0 33.941l-22.667 22.667c-9.357 9.357-24.522 9.375-33.901.04L224 227.495 69.255 381.516c-9.379 9.335-24.544 9.317-33.901-.04l-22.667-22.667c-9.373-9.373-9.373-24.569 0-33.941L207.03 130.525c9.372-9.373 24.568-9.373 33.941-.001z"></path>
      </symbol>

      <symbol id="icon-cog-solid" viewBox="0 0 512 512" aria-hidden="true" focusable="false" role="img" xmlns="http://www.w3.org/2000/svg">
         <path fill="currentColor" d="M487.4 315.7l-42.6-24.6c4.3-23.2 4.3-47 0-70.2l42.6-24.6c4.9-2.8 7.1-8.6 5.5-14-11.1-35.6-30-67.8-54.7-94.6-3.8-4.1-10-5.1-14.8-2.3L380.8 110c-17.9-15.4-38.5-27.3-60.8-35.1V25.8c0-5.6-3.9-10.5-9.4-11.7-36.7-8.2-74.3-7.8-109.2 0-5.5 1.2-9.4 6.1-9.4 11.7V75c-22.2 7.9-42.8 19.8-60.8 35.1L88.7 85.5c-4.9-2.8-11-1.9-14.8 2.3-24.7 26.7-43.6 58.9-54.7 94.6-1.7 5.4.6 11.2 5.5 14L67.3 221c-4.3 23.2-4.3 47 0 70.2l-42.6 24.6c-4.9 2.8-7.1 8.6-5.5 14 11.1 35.6 30 67.8 54.7 94.6 3.8 4.1 10 5.1 14.8 2.3l42.6-24.6c17.9 15.4 38.5 27.3 60.8 35.1v49.2c0 5.6 3.9 10.5 9.4 11.7 36.7 8.2 74.3 7.8 109.2 0 5.5-1.2 9.4-6.1 9.4-11.7v-49.2c22.2-7.9 42.8-19.8 60.8-35.1l42.6 24.6c4.9 2.8 11 1.9 14.8-2.3 24.7-26.7 43.6-58.9 54.7-94.6 1.5-5.5-.7-11.3-5.6-14.1zM256 336c-44.1 0-80-35.9-80-80s35.9-80 80-80 80 35.9 80 80-35.9 80-80 80z"></path>
      </symbol>

      <symbol id="icon-dice-d6-solid" viewBox="0 0 448 512" aria-hidden="true" focusable="false" role="img" xmlns="http://www.w3.org/2000/svg">
         <path fill="currentColor" d="M422.19 109.95L256.21 9.07c-19.91-12.1-44.52-12.1-64.43 0L25.81 109.95c-5.32 3.23-5.29 11.27.06 14.46L224 242.55l198.14-118.14c5.35-3.19 5.38-11.22.05-14.46zm13.84 44.63L240 271.46v223.82c0 12.88 13.39 20.91 24.05 14.43l152.16-92.48c19.68-11.96 31.79-33.94 31.79-57.7v-197.7c0-6.41-6.64-10.43-11.97-7.25zM0 161.83v197.7c0 23.77 12.11 45.74 31.79 57.7l152.16 92.47c10.67 6.48 24.05-1.54 24.05-14.43V271.46L11.97 154.58C6.64 151.4 0 155.42 0 161.83z"></path>
      </symbol>

      <symbol id="icon-dolly-flatbed-solid" viewBox="0 0 640 512" aria-hidden="true" focusable="false" role="img" xmlns="http://www.w3.org/2000/svg">
         <path fill="currentColor" d="M208 320h384c8.8 0 16-7.2 16-16V48c0-8.8-7.2-16-16-16H448v128l-48-32-48 32V32H208c-8.8 0-16 7.2-16 16v256c0 8.8 7.2 16 16 16zm416 64H128V16c0-8.8-7.2-16-16-16H16C7.2 0 0 7.2 0 16v32c0 8.8 7.2 16 16 16h48v368c0 8.8 7.2 16 16 16h82.9c-1.8 5-2.9 10.4-2.9 16 0 26.5 21.5 48 48 48s48-21.5 48-48c0-5.6-1.2-11-2.9-16H451c-1.8 5-2.9 10.4-2.9 16 0 26.5 21.5 48 48 48s48-21.5 48-48c0-5.6-1.2-11-2.9-16H624c8.8 0 16-7.2 16-16v-32c0-8.8-7.2-16-16-16z"></path>
      </symbol>

      <symbol id="icon-edit-regular" viewBox="0 0 576 512" aria-hidden="true" focusable="false" role="img" xmlns="http://www.w3.org/2000/svg">
         <path fill="currentColor" d="M402.3 344.9l32-32c5-5 13.7-1.5 13.7 5.7V464c0 26.5-21.5 48-48 48H48c-26.5 0-48-21.5-48-48V112c0-26.5 21.5-48 48-48h273.5c7.1 0 10.7 8.6 5.7 13.7l-32 32c-1.5 1.5-3.5 2.3-5.7 2.3H48v352h352V350.5c0-2.1.8-4.1 2.3-5.6zm156.6-201.8L296.3 405.7l-90.4 10c-26.2 2.9-48.5-19.2-45.6-45.6l10-90.4L432.9 17.1c22.9-22.9 59.9-22.9 82.7 0l43.2 43.2c22.9 22.9 22.9 60 .1 82.8zM460.1 174L402 115.9 216.2 301.8l-7.3 65.3 65.3-7.3L460.1 174zm64.8-79.7l-43.2-43.2c-4.1-4.1-10.8-4.1-14.8 0L436 82l58.1 58.1 30.9-30.9c4-4.2 4-10.8-.1-14.9z"></path>
      </symbol>

      <symbol id="icon-ellipsis-h-solid" viewBox="0 0 512 512" aria-hidden="true" focusable="false" role="img" xmlns="http://www.w3.org/2000/svg">
         <path fill="currentColor" d="M328 256c0 39.8-32.2 72-72 72s-72-32.2-72-72 32.2-72 72-72 72 32.2 72 72zm104-72c-39.8 0-72 32.2-72 72s32.2 72 72 72 72-32.2 72-72-32.2-72-72-72zm-352 0c-39.8 0-72 32.2-72 72s32.2 72 72 72 72-32.2 72-72-32.2-72-72-72z"></path>
      </symbol>

      <symbol id="icon-ellipsis-v-solid" viewBox="0 0 192 512" aria-hidden="true" focusable="false" role="img" xmlns="http://www.w3.org/2000/svg">
         <path fill="currentColor" d="M96 184c39.8 0 72 32.2 72 72s-32.2 72-72 72-72-32.2-72-72 32.2-72 72-72zM24 80c0 39.8 32.2 72 72 72s72-32.2 72-72S135.8 8 96 8 24 40.2 24 80zm0 352c0 39.8 32.2 72 72 72s72-32.2 72-72-32.2-72-72-72-72 32.2-72 72z"></path>
      </symbol>

      <symbol id="icon-eye-regular" viewBox="0 0 576 512" aria-hidden="true" focusable="false" role="img" xmlns="http://www.w3.org/2000/svg">
         <path fill="currentColor" d="M288 144a110.94 110.94 0 0 0-31.24 5 55.4 55.4 0 0 1 7.24 27 56 56 0 0 1-56 56 55.4 55.4 0 0 1-27-7.24A111.71 111.71 0 1 0 288 144zm284.52 97.4C518.29 135.59 410.93 64 288 64S57.68 135.64 3.48 241.41a32.35 32.35 0 0 0 0 29.19C57.71 376.41 165.07 448 288 448s230.32-71.64 284.52-177.41a32.35 32.35 0 0 0 0-29.19zM288 400c-98.65 0-189.09-55-237.93-144C98.91 167 189.34 112 288 112s189.09 55 237.93 144C477.1 345 386.66 400 288 400z"></path>
      </symbol>

      <symbol id="icon-eye-slash-regular" viewBox="0 0 640 512" aria-hidden="true" focusable="false" role="img" xmlns="http://www.w3.org/2000/svg">
         <path fill="currentColor" d="M634 471L36 3.51A16 16 0 0 0 13.51 6l-10 12.49A16 16 0 0 0 6 41l598 467.49a16 16 0 0 0 22.49-2.49l10-12.49A16 16 0 0 0 634 471zM296.79 146.47l134.79 105.38C429.36 191.91 380.48 144 320 144a112.26 112.26 0 0 0-23.21 2.47zm46.42 219.07L208.42 260.16C210.65 320.09 259.53 368 320 368a113 113 0 0 0 23.21-2.46zM320 112c98.65 0 189.09 55 237.93 144a285.53 285.53 0 0 1-44 60.2l37.74 29.5a333.7 333.7 0 0 0 52.9-75.11 32.35 32.35 0 0 0 0-29.19C550.29 135.59 442.93 64 320 64c-36.7 0-71.71 7-104.63 18.81l46.41 36.29c18.94-4.3 38.34-7.1 58.22-7.1zm0 288c-98.65 0-189.08-55-237.93-144a285.47 285.47 0 0 1 44.05-60.19l-37.74-29.5a333.6 333.6 0 0 0-52.89 75.1 32.35 32.35 0 0 0 0 29.19C89.72 376.41 197.08 448 320 448c36.7 0 71.71-7.05 104.63-18.81l-46.41-36.28C359.28 397.2 339.89 400 320 400z"></path>
      </symbol>

      <symbol id="icon-file-regular" viewBox="0 0 384 512" aria-hidden="true" focusable="false" role="img" xmlns="http://www.w3.org/2000/svg">
         <path fill="currentColor" d="M369.9 97.9L286 14C277 5 264.8-.1 252.1-.1H48C21.5 0 0 21.5 0 48v416c0 26.5 21.5 48 48 48h288c26.5 0 48-21.5 48-48V131.9c0-12.7-5.1-25-14.1-34zM332.1 128H256V51.9l76.1 76.1zM48 464V48h160v104c0 13.3 10.7 24 24 24h104v288H48z"></path>
      </symbol>

      <symbol id="icon-font-solid" viewBox="0 0 448 512" aria-hidden="true" focusable="false" role="img" xmlns="http://www.w3.org/2000/svg">
         <path fill="currentColor" d="M432 416h-23.41L277.88 53.69A32 32 0 0 0 247.58 32h-47.16a32 32 0 0 0-30.3 21.69L39.41 416H16a16 16 0 0 0-16 16v32a16 16 0 0 0 16 16h128a16 16 0 0 0 16-16v-32a16 16 0 0 0-16-16h-19.58l23.3-64h152.56l23.3 64H304a16 16 0 0 0-16 16v32a16 16 0 0 0 16 16h128a16 16 0 0 0 16-16v-32a16 16 0 0 0-16-16zM176.85 272L224 142.51 271.15 272z"></path>
      </symbol>

      <symbol id="icon-home-solid" viewBox="0 0 576 512" aria-hidden="true" focusable="false" role="img" xmlns="http://www.w3.org/2000/svg">
         <path fill="currentColor" d="M280.37 148.26L96 300.11V464a16 16 0 0 0 16 16l112.06-.29a16 16 0 0 0 15.92-16V368a16 16 0 0 1 16-16h64a16 16 0 0 1 16 16v95.64a16 16 0 0 0 16 16.05L464 480a16 16 0 0 0 16-16V300L295.67 148.26a12.19 12.19 0 0 0-15.3 0zM571.6 251.47L488 182.56V44.05a12 12 0 0 0-12-12h-56a12 12 0 0 0-12 12v72.61L318.47 43a48 48 0 0 0-61 0L4.34 251.47a12 12 0 0 0-1.6 16.9l25.5 31A12 12 0 0 0 45.15 301l235.22-193.74a12.19 12.19 0 0 1 15.3 0L530.9 301a12 12 0 0 0 16.9-1.6l25.5-31a12 12 0 0 0-1.7-16.93z"></path>
      </symbol>

      <symbol id="icon-keyboard-solid" viewBox="0 0 576 512" aria-hidden="true" focusable="false" role="img" xmlns="http://www.w3.org/2000/svg">
         <path fill="currentColor" d="M528 448H48c-26.51 0-48-21.49-48-48V112c0-26.51 21.49-48 48-48h480c26.51 0 48 21.49 48 48v288c0 26.51-21.49 48-48 48zM128 180v-40c0-6.627-5.373-12-12-12H76c-6.627 0-12 5.373-12 12v40c0 6.627 5.373 12 12 12h40c6.627 0 12-5.373 12-12zm96 0v-40c0-6.627-5.373-12-12-12h-40c-6.627 0-12 5.373-12 12v40c0 6.627 5.373 12 12 12h40c6.627 0 12-5.373 12-12zm96 0v-40c0-6.627-5.373-12-12-12h-40c-6.627 0-12 5.373-12 12v40c0 6.627 5.373 12 12 12h40c6.627 0 12-5.373 12-12zm96 0v-40c0-6.627-5.373-12-12-12h-40c-6.627 0-12 5.373-12 12v40c0 6.627 5.373 12 12 12h40c6.627 0 12-5.373 12-12zm96 0v-40c0-6.627-5.373-12-12-12h-40c-6.627 0-12 5.373-12 12v40c0 6.627 5.373 12 12 12h40c6.627 0 12-5.373 12-12zm-336 96v-40c0-6.627-5.373-12-12-12h-40c-6.627 0-12 5.373-12 12v40c0 6.627 5.373 12 12 12h40c6.627 0 12-5.373 12-12zm96 0v-40c0-6.627-5.373-12-12-12h-40c-6.627 0-12 5.373-12 12v40c0 6.627 5.373 12 12 12h40c6.627 0 12-5.373 12-12zm96 0v-40c0-6.627-5.373-12-12-12h-40c-6.627 0-12 5.373-12 12v40c0 6.627 5.373 12 12 12h40c6.627 0 12-5.373 12-12zm96 0v-40c0-6.627-5.373-12-12-12h-40c-6.627 0-12 5.373-12 12v40c0 6.627 5.373 12 12 12h40c6.627 0 12-5.373 12-12zm-336 96v-40c0-6.627-5.373-12-12-12H76c-6.627 0-12 5.373-12 12v40c0 6.627 5.373 12 12 12h40c6.627 0 12-5.373 12-12zm288 0v-40c0-6.627-5.373-12-12-12H172c-6.627 0-12 5.373-12 12v40c0 6.627 5.373 12 12 12h232c6.627 0 12-5.373 12-12zm96 0v-40c0-6.627-5.373-12-12-12h-40c-6.627 0-12 5.373-12 12v40c0 6.627 5.373 12 12 12h40c6.627 0 12-5.373 12-12z"></path>
      </symbol>
      <!-- list solid -->
      <symbol id="icon-list-solid" viewBox="0 0 512 512" aria-hidden="true" focusable="false" role="img" xmlns="http://www.w3.org/2000/svg">
         <path fill="currentColor" d="M80 368H16a16 16 0 0 0-16 16v64a16 16 0 0 0 16 16h64a16 16 0 0 0 16-16v-64a16 16 0 0 0-16-16zm0-320H16A16 16 0 0 0 0 64v64a16 16 0 0 0 16 16h64a16 16 0 0 0 16-16V64a16 16 0 0 0-16-16zm0 160H16a16 16 0 0 0-16 16v64a16 16 0 0 0 16 16h64a16 16 0 0 0 16-16v-64a16 16 0 0 0-16-16zm416 176H176a16 16 0 0 0-16 16v32a16 16 0 0 0 16 16h320a16 16 0 0 0 16-16v-32a16 16 0 0 0-16-16zm0-320H176a16 16 0 0 0-16 16v32a16 16 0 0 0 16 16h320a16 16 0 0 0 16-16V80a16 16 0 0 0-16-16zm0 160H176a16 16 0 0 0-16 16v32a16 16 0 0 0 16 16h320a16 16 0 0 0 16-16v-32a16 16 0 0 0-16-16z"></path>
      </symbol>

      <symbol id="icon-minus-square-regular" viewBox="0 0 448 512" aria-hidden="true" focusable="false" role="img" xmlns="http://www.w3.org/2000/svg">
         <path fill="currentColor" d="M108 284c-6.6 0-12-5.4-12-12v-32c0-6.6 5.4-12 12-12h232c6.6 0 12 5.4 12 12v32c0 6.6-5.4 12-12 12H108zM448 80v352c0 26.5-21.5 48-48 48H48c-26.5 0-48-21.5-48-48V80c0-26.5 21.5-48 48-48h352c26.5 0 48 21.5 48 48zm-48 346V86c0-3.3-2.7-6-6-6H54c-3.3 0-6 2.7-6 6v340c0 3.3 2.7 6 6 6h340c3.3 0 6-2.7 6-6z"></path>
      </symbol>

      <symbol id="icon-paper-plane-solid" viewBox="0 0 512 512" aria-hidden="true" focusable="false" role="img" xmlns="http://www.w3.org/2000/svg">
         <path fill="currentColor" d="M476 3.2L12.5 270.6c-18.1 10.4-15.8 35.6 2.2 43.2L121 358.4l287.3-253.2c5.5-4.9 13.3 2.6 8.6 8.3L176 407v80.5c0 23.6 28.5 32.9 42.5 15.8L282 426l124.6 52.2c14.2 6 30.4-2.9 33-18.2l72-432C515 7.8 493.3-6.8 476 3.2z"></path>
      </symbol>

      <symbol id="icon-paperclip-solid" viewBox="0 0 448 512" aria-hidden="true" focusable="false" role="img" xmlns="http://www.w3.org/2000/svg">
         <path fill="currentColor" d="M43.246 466.142c-58.43-60.289-57.341-157.511 1.386-217.581L254.392 34c44.316-45.332 116.351-45.336 160.671 0 43.89 44.894 43.943 117.329 0 162.276L232.214 383.128c-29.855 30.537-78.633 30.111-107.982-.998-28.275-29.97-27.368-77.473 1.452-106.953l143.743-146.835c6.182-6.314 16.312-6.422 22.626-.241l22.861 22.379c6.315 6.182 6.422 16.312.241 22.626L171.427 319.927c-4.932 5.045-5.236 13.428-.648 18.292 4.372 4.634 11.245 4.711 15.688.165l182.849-186.851c19.613-20.062 19.613-52.725-.011-72.798-19.189-19.627-49.957-19.637-69.154 0L90.39 293.295c-34.763 35.56-35.299 93.12-1.191 128.313 34.01 35.093 88.985 35.137 123.058.286l172.06-175.999c6.177-6.319 16.307-6.433 22.626-.256l22.877 22.364c6.319 6.177 6.434 16.307.256 22.626l-172.06 175.998c-59.576 60.938-155.943 60.216-214.77-.485z"></path>
      </symbol>

      <symbol id="icon-plus-square-regular" viewBox="0 0 448 512" aria-hidden="true" focusable="false" role="img" xmlns="http://www.w3.org/2000/svg">
         <path fill="currentColor" d="M352 240v32c0 6.6-5.4 12-12 12h-88v88c0 6.6-5.4 12-12 12h-32c-6.6 0-12-5.4-12-12v-88h-88c-6.6 0-12-5.4-12-12v-32c0-6.6 5.4-12 12-12h88v-88c0-6.6 5.4-12 12-12h32c6.6 0 12 5.4 12 12v88h88c6.6 0 12 5.4 12 12zm96-160v352c0 26.5-21.5 48-48 48H48c-26.5 0-48-21.5-48-48V80c0-26.5 21.5-48 48-48h352c26.5 0 48 21.5 48 48zm-48 346V86c0-3.3-2.7-6-6-6H54c-3.3 0-6 2.7-6 6v340c0 3.3 2.7 6 6 6h340c3.3 0 6-2.7 6-6z"></path>
      </symbol>

      <symbol id="icon-question-solid" viewBox="0 0 384 512" aria-hidden="true" focusable="false" role="img" xmlns="http://www.w3.org/2000/svg">
         <path fill="currentColor" d="M202.021 0C122.202 0 70.503 32.703 29.914 91.026c-7.363 10.58-5.093 25.086 5.178 32.874l43.138 32.709c10.373 7.865 25.132 6.026 33.253-4.148 25.049-31.381 43.63-49.449 82.757-49.449 30.764 0 68.816 19.799 68.816 49.631 0 22.552-18.617 34.134-48.993 51.164-35.423 19.86-82.299 44.576-82.299 106.405V320c0 13.255 10.745 24 24 24h72.471c13.255 0 24-10.745 24-24v-5.773c0-42.86 125.268-44.645 125.268-160.627C377.504 66.256 286.902 0 202.021 0zM192 373.459c-38.196 0-69.271 31.075-69.271 69.271 0 38.195 31.075 69.27 69.271 69.27s69.271-31.075 69.271-69.271-31.075-69.27-69.271-69.27z"></path>
      </symbol>

      <symbol id="icon-save-solid" viewBox="0 0 448 512" aria-hidden="true" focusable="false" role="img" xmlns="http://www.w3.org/2000/svg">
         <path fill="currentColor" d="M433.941 129.941l-83.882-83.882A48 48 0 0 0 316.118 32H48C21.49 32 0 53.49 0 80v352c0 26.51 21.49 48 48 48h352c26.51 0 48-21.49 48-48V163.882a48 48 0 0 0-14.059-33.941zM224 416c-35.346 0-64-28.654-64-64 0-35.346 28.654-64 64-64s64 28.654 64 64c0 35.346-28.654 64-64 64zm96-304.52V212c0 6.627-5.373 12-12 12H76c-6.627 0-12-5.373-12-12V108c0-6.627 5.373-12 12-12h228.52c3.183 0 6.235 1.264 8.485 3.515l3.48 3.48A11.996 11.996 0 0 1 320 111.48z"></path>
      </symbol>

      <symbol id="icon-search-solid" viewBox="0 0 512 512" aria-hidden="true" focusable="false" role="img" xmlns="http://www.w3.org/2000/svg">
         <path fill="currentColor" d="M505 442.7L405.3 343c-4.5-4.5-10.6-7-17-7H372c27.6-35.3 44-79.7 44-128C416 93.1 322.9 0 208 0S0 93.1 0 208s93.1 208 208 208c48.3 0 92.7-16.4 128-44v16.3c0 6.4 2.5 12.5 7 17l99.7 99.7c9.4 9.4 24.6 9.4 33.9 0l28.3-28.3c9.4-9.4 9.4-24.6.1-34zM208 336c-70.7 0-128-57.2-128-128 0-70.7 57.2-128 128-128 70.7 0 128 57.2 128 128 0 70.7-57.2 128-128 128z"></path>
      </symbol>

      <symbol id="icon-signal-solid" viewBox="0 0 640 512" aria-hidden="true" focusable="false" role="img" xmlns="http://www.w3.org/2000/svg">
         <path fill="currentColor" d="M216 288h-48c-8.84 0-16 7.16-16 16v192c0 8.84 7.16 16 16 16h48c8.84 0 16-7.16 16-16V304c0-8.84-7.16-16-16-16zM88 384H40c-8.84 0-16 7.16-16 16v96c0 8.84 7.16 16 16 16h48c8.84 0 16-7.16 16-16v-96c0-8.84-7.16-16-16-16zm256-192h-48c-8.84 0-16 7.16-16 16v288c0 8.84 7.16 16 16 16h48c8.84 0 16-7.16 16-16V208c0-8.84-7.16-16-16-16zm128-96h-48c-8.84 0-16 7.16-16 16v384c0 8.84 7.16 16 16 16h48c8.84 0 16-7.16 16-16V112c0-8.84-7.16-16-16-16zM600 0h-48c-8.84 0-16 7.16-16 16v480c0 8.84 7.16 16 16 16h48c8.84 0 16-7.16 16-16V16c0-8.84-7.16-16-16-16z"></path>
      </symbol>

      <symbol id="icon-sync-alt-solid" viewBox="0 0 512 512" aria-hidden="true" focusable="false" role="img" xmlns="http://www.w3.org/2000/svg">
         <path fill="currentColor" d="M370.72 133.28C339.458 104.008 298.888 87.962 255.848 88c-77.458.068-144.328 53.178-162.791 126.85-1.344 5.363-6.122 9.15-11.651 9.15H24.103c-7.498 0-13.194-6.807-11.807-14.176C33.933 94.924 134.813 8 256 8c66.448 0 126.791 26.136 171.315 68.685L463.03 40.97C478.149 25.851 504 36.559 504 57.941V192c0 13.255-10.745 24-24 24H345.941c-21.382 0-32.09-25.851-16.971-40.971l41.75-41.749zM32 296h134.059c21.382 0 32.09 25.851 16.971 40.971l-41.75 41.75c31.262 29.273 71.835 45.319 114.876 45.28 77.418-.07 144.315-53.144 162.787-126.849 1.344-5.363 6.122-9.15 11.651-9.15h57.304c7.498 0 13.194 6.807 11.807 14.176C478.067 417.076 377.187 504 256 504c-66.448 0-126.791-26.136-171.315-68.685L48.97 471.03C33.851 486.149 8 475.441 8 454.059V320c0-13.255 10.745-24 24-24z"></path>
      </symbol>

      <symbol id="icon-times-circle-regular" viewBox="0 0 512 512" aria-hidden="true" focusable="false" role="img" xmlns="http://www.w3.org/2000/svg">
         <path fill="currentColor" d="M256 8C119 8 8 119 8 256s111 248 248 248 248-111 248-248S393 8 256 8zm0 448c-110.5 0-200-89.5-200-200S145.5 56 256 56s200 89.5 200 200-89.5 200-200 200zm101.8-262.2L295.6 256l62.2 62.2c4.7 4.7 4.7 12.3 0 17l-22.6 22.6c-4.7 4.7-12.3 4.7-17 0L256 295.6l-62.2 62.2c-4.7 4.7-12.3 4.7-17 0l-22.6-22.6c-4.7-4.7-4.7-12.3 0-17l62.2-62.2-62.2-62.2c-4.7-4.7-4.7-12.3 0-17l22.6-22.6c4.7-4.7 12.3-4.7 17 0l62.2 62.2 62.2-62.2c4.7-4.7 12.3-4.7 17 0l22.6 22.6c4.7 4.7 4.7 12.3 0 17z"></path>
      </symbol>

      <symbol id="icon-times-solid" viewBox="0 0 352 512" aria-hidden="true" focusable="false" role="img" xmlns="http://www.w3.org/2000/svg">
         <path fill="currentColor" d="M242.72 256l100.07-100.07c12.28-12.28 12.28-32.19 0-44.48l-22.24-22.24c-12.28-12.28-32.19-12.28-44.48 0L176 189.28 75.93 89.21c-12.28-12.28-32.19-12.28-44.48 0L9.21 111.45c-12.28 12.28-12.28 32.19 0 44.48L109.28 256 9.21 356.07c-12.28 12.28-12.28 32.19 0 44.48l22.24 22.24c12.28 12.28 32.2 12.28 44.48 0L176 322.72l100.07 100.07c12.28 12.28 32.2 12.28 44.48 0l22.24-22.24c12.28-12.28 12.28-32.19 0-44.48L242.72 256z"></path>
      </symbol>

      <symbol id="icon-trash-alt-regular" viewBox="0 0 448 512" aria-hidden="true" focusable="false" role="img" xmlns="http://www.w3.org/2000/svg">
         <path fill="currentColor" d="M268 416h24a12 12 0 0 0 12-12V188a12 12 0 0 0-12-12h-24a12 12 0 0 0-12 12v216a12 12 0 0 0 12 12zM432 80h-82.41l-34-56.7A48 48 0 0 0 274.41 0H173.59a48 48 0 0 0-41.16 23.3L98.41 80H16A16 16 0 0 0 0 96v16a16 16 0 0 0 16 16h16v336a48 48 0 0 0 48 48h288a48 48 0 0 0 48-48V128h16a16 16 0 0 0 16-16V96a16 16 0 0 0-16-16zM171.84 50.91A6 6 0 0 1 177 48h94a6 6 0 0 1 5.15 2.91L293.61 80H154.39zM368 464H80V128h288zm-212-48h24a12 12 0 0 0 12-12V188a12 12 0 0 0-12-12h-24a12 12 0 0 0-12 12v216a12 12 0 0 0 12 12z"></path>
      </symbol>

      <symbol id="icon-undo-solid" viewBox="0 0 512 512" aria-hidden="true" focusable="false" role="img" xmlns="http://www.w3.org/2000/svg">
         <path fill="currentColor" d="M212.333 224.333H12c-6.627 0-12-5.373-12-12V12C0 5.373 5.373 0 12 0h48c6.627 0 12 5.373 12 12v78.112C117.773 39.279 184.26 7.47 258.175 8.007c136.906.994 246.448 111.623 246.157 248.532C504.041 393.258 393.12 504 256.333 504c-64.089 0-122.496-24.313-166.51-64.215-5.099-4.622-5.334-12.554-.467-17.42l33.967-33.967c4.474-4.474 11.662-4.717 16.401-.525C170.76 415.336 211.58 432 256.333 432c97.268 0 176-78.716 176-176 0-97.267-78.716-176-176-176-58.496 0-110.28 28.476-142.274 72.333h98.274c6.627 0 12 5.373 12 12v48c0 6.627-5.373 12-12 12z"></path>
      </symbol>

      <symbol id="icon-user-solid" viewBox="0 0 448 512" aria-hidden="true" focusable="false" role="img" xmlns="http://www.w3.org/2000/svg">
         <path fill="currentColor" d="M224 256c70.7 0 128-57.3 128-128S294.7 0 224 0 96 57.3 96 128s57.3 128 128 128zm89.6 32h-16.7c-22.2 10.2-46.9 16-72.9 16s-50.6-5.8-72.9-16h-16.7C60.2 288 0 348.2 0 422.4V464c0 26.5 21.5 48 48 48h352c26.5 0 48-21.5 48-48v-41.6c0-74.2-60.2-134.4-134.4-134.4z"></path>
      </symbol>

      <symbol id="icon-wave-square-solid" viewBox="0 0 640 512" aria-hidden="true" focusable="false" role="img" xmlns="http://www.w3.org/2000/svg">
         <path fill="currentColor" d="M476 480H324a36 36 0 0 1-36-36V96h-96v156a36 36 0 0 1-36 36H16a16 16 0 0 1-16-16v-32a16 16 0 0 1 16-16h112V68a36 36 0 0 1 36-36h152a36 36 0 0 1 36 36v348h96V260a36 36 0 0 1 36-36h140a16 16 0 0 1 16 16v32a16 16 0 0 1-16 16H512v156a36 36 0 0 1-36 36z"></path>
      </symbol>

      <symbol id="icon-wind-solid" viewBox="0 0 512 512" aria-hidden="true" focusable="false" role="img" xmlns="http://www.w3.org/2000/svg">
         <path fill="currentColor" d="M156.7 256H16c-8.8 0-16 7.2-16 16v32c0 8.8 7.2 16 16 16h142.2c15.9 0 30.8 10.9 33.4 26.6 3.3 20-12.1 37.4-31.6 37.4-14.1 0-26.1-9.2-30.4-21.9-2.1-6.3-8.6-10.1-15.2-10.1H81.6c-9.8 0-17.7 8.8-15.9 18.4 8.6 44.1 47.6 77.6 94.2 77.6 57.1 0 102.7-50.1 95.2-108.6C249 291 205.4 256 156.7 256zM16 224h336c59.7 0 106.8-54.8 93.8-116.7-7.6-36.2-36.9-65.5-73.1-73.1-55.4-11.6-105.1 24.9-114.9 75.5-1.9 9.6 6.1 18.3 15.8 18.3h32.8c6.7 0 13.1-3.8 15.2-10.1C325.9 105.2 337.9 96 352 96c19.4 0 34.9 17.4 31.6 37.4-2.6 15.7-17.4 26.6-33.4 26.6H16c-8.8 0-16 7.2-16 16v32c0 8.8 7.2 16 16 16zm384 32H243.7c19.3 16.6 33.2 38.8 39.8 64H400c26.5 0 48 21.5 48 48s-21.5 48-48 48c-17.9 0-33.3-9.9-41.6-24.4-2.9-5-8.7-7.6-14.5-7.6h-33.8c-10.9 0-19 10.8-15.3 21.1 17.8 50.6 70.5 84.8 129.4 72.3 41.2-8.7 75.1-41.6 84.7-82.7C526 321.5 470.5 256 400 256z"></path>
      </symbol>

      <symbol id="icon-wpexplorer-brands" viewBox="0 0 512 512" aria-hidden="true" focusable="false" data-prefix="fab" role="img" xmlns="http://www.w3.org/2000/svg">
         <path fill="currentColor" d="M512 256c0 141.2-114.7 256-256 256C114.8 512 0 397.3 0 256S114.7 0 256 0s256 114.7 256 256zm-32 0c0-123.2-100.3-224-224-224C132.5 32 32 132.5 32 256s100.5 224 224 224 224-100.5 224-224zM160.9 124.6l86.9 37.1-37.1 86.9-86.9-37.1 37.1-86.9zm110 169.1l46.6 94h-14.6l-50-100-48.9 100h-14l51.1-106.9-22.3-9.4 6-14 68.6 29.1-6 14.3-16.5-7.1zm-11.8-116.3l68.6 29.4-29.4 68.3L230 246l29.1-68.6zm80.3 42.9l54.6 23.1-23.4 54.3-54.3-23.1 23.1-54.3z"></path>
      </symbol>

      <symbol id="icon-frostbite-logo" xmlns="http://www.w3.org/2000/svg" viewBox="0 0 214 224">
         <path id="Selection" fill="rgba(52, 151, 219, 1)" stroke="black" stroke-width="1" d="M 98.00,1.00
           C 98.00,1.00 98.00,27.00 98.00,27.00
             98.00,27.00 68.00,12.00 68.00,12.00
             68.00,12.00 68.00,24.00 68.00,24.00
             68.00,24.00 69.02,31.79 69.02,31.79
             69.02,31.79 77.00,37.60 77.00,37.60
             77.00,37.60 94.00,47.42 94.00,47.42
             94.00,47.42 107.00,53.58 107.00,53.58
             107.00,53.58 119.00,48.01 119.00,48.01
             119.00,48.01 137.00,37.60 137.00,37.60
             137.00,37.60 144.40,32.61 144.40,32.61
             144.40,32.61 146.00,26.00 146.00,26.00
             146.00,26.00 146.00,12.00 146.00,12.00
             146.00,12.00 116.00,27.00 116.00,27.00
             116.00,27.00 116.00,1.00 116.00,1.00
             116.00,1.00 98.00,1.00 98.00,1.00 Z
           M 39.00,29.00
           C 39.00,29.00 39.00,62.00 39.00,62.00
             39.00,62.00 23.00,52.42 23.00,52.42
             21.18,51.41 18.25,49.63 16.10,49.99
             12.23,50.63 6.14,62.17 8.64,65.61
             10.37,68.00 24.64,75.50 28.00,77.00
             28.00,77.00 28.00,79.00 28.00,79.00
             28.00,79.00 1.00,94.00 1.00,94.00
             1.00,94.00 1.00,96.00 1.00,96.00
             4.05,97.76 14.28,103.91 17.00,104.45
             20.73,105.19 23.94,102.79 27.00,101.01
             27.00,101.01 45.00,90.74 45.00,90.74
             46.88,90.24 48.03,90.05 50.00,90.74
             53.01,91.37 65.50,98.70 66.98,101.21
             68.38,103.59 68.00,109.14 68.00,112.00
             62.68,109.63 51.94,101.87 47.00,102.49
             44.27,102.84 40.47,105.32 38.00,106.70
             34.20,108.81 33.09,109.05 31.00,113.00
             31.00,113.00 55.00,127.01 55.00,127.01
             55.00,127.01 65.69,133.63 65.69,133.63
             71.49,139.23 63.37,144.93 73.02,150.99
             73.02,150.99 92.00,162.00 92.00,162.00
             95.78,164.37 98.97,166.86 97.68,171.90
             96.80,175.35 92.85,177.09 90.00,178.72
             90.00,178.72 69.57,190.95 69.57,190.95
             66.92,193.74 68.00,207.69 68.00,212.00
             68.00,212.00 98.00,197.00 98.00,197.00
             98.00,197.00 98.00,223.00 98.00,223.00
             98.00,223.00 116.00,223.00 116.00,223.00
             116.00,223.00 116.00,197.00 116.00,197.00
             116.00,197.00 146.00,212.00 146.00,212.00
             146.00,207.69 147.08,193.74 144.43,190.95
             144.43,190.95 124.00,178.72 124.00,178.72
             121.15,177.09 117.20,175.35 116.32,171.90
             115.03,166.86 118.22,164.37 122.00,162.00
             122.00,162.00 140.98,150.99 140.98,150.99
             150.63,144.93 142.51,139.23 148.31,133.63
             148.31,133.63 159.00,127.01 159.00,127.01
             159.00,127.01 183.00,113.00 183.00,113.00
             180.91,109.05 179.80,108.81 176.00,106.70
             173.53,105.32 169.73,102.84 167.00,102.49
             162.06,101.87 151.32,109.63 146.00,112.00
             146.00,109.59 145.77,104.13 146.60,102.10
             148.36,97.78 163.40,89.40 168.00,90.56
             168.00,90.56 194.00,104.45 194.00,104.45
             198.72,105.40 208.70,98.48 213.00,96.00
             213.00,96.00 213.00,94.00 213.00,94.00
             213.00,94.00 186.00,79.00 186.00,79.00
             186.00,79.00 186.00,77.00 186.00,77.00
             189.36,75.50 203.63,68.00 205.36,65.61
             207.86,62.17 201.77,50.63 197.90,49.99
             195.75,49.63 192.82,51.41 191.00,52.42
             191.00,52.42 175.00,62.00 175.00,62.00
             175.00,62.00 175.00,29.00 175.00,29.00
             171.11,30.11 160.10,35.11 158.02,38.39
             156.78,40.35 157.00,43.72 157.00,46.00
             157.00,46.00 157.00,64.00 157.00,64.00
             157.00,66.31 157.22,69.63 155.98,71.62
             153.36,75.82 130.60,85.72 127.99,89.61
             126.83,91.33 127.01,93.99 127.00,96.00
             127.00,96.00 127.00,129.00 127.00,129.00
             127.00,131.28 127.22,134.65 125.98,136.61
             124.30,139.25 110.12,147.22 107.00,147.22
             103.88,147.22 89.70,139.25 88.02,136.61
             86.78,134.65 87.00,131.28 87.00,129.00
             87.00,129.00 87.00,95.00 87.00,95.00
             86.87,87.40 83.22,87.15 77.00,83.58
             73.00,81.28 59.14,74.37 57.60,70.79
             56.88,69.11 57.00,65.88 57.00,64.00
             57.00,64.00 57.00,45.00 57.00,45.00
             56.99,42.91 57.13,40.21 55.98,38.39
             53.90,35.11 42.89,30.11 39.00,29.00 Z
           M 68.00,46.00
           C 68.00,46.00 68.00,58.00 68.00,58.00
             68.00,58.00 69.02,65.79 69.02,65.79
             69.02,65.79 77.00,71.60 77.00,71.60
             77.00,71.60 94.00,81.58 94.00,81.58
             94.00,81.58 107.00,87.58 107.00,87.58
             107.00,87.58 118.00,82.72 118.00,82.72
             118.00,82.72 136.00,72.20 136.00,72.20
             136.00,72.20 144.40,66.61 144.40,66.61
             144.40,66.61 146.00,60.00 146.00,60.00
             146.00,60.00 146.00,46.00 146.00,46.00
             138.41,47.44 126.16,55.88 119.00,60.00
             116.27,61.57 109.90,65.71 107.00,65.71
             104.10,65.71 97.73,61.57 95.00,60.00
             87.84,55.88 75.59,47.44 68.00,46.00 Z
           M 1.00,128.00
           C 1.00,128.00 1.00,130.00 1.00,130.00
             1.00,130.00 29.00,147.00 29.00,147.00
             23.94,148.45 16.51,152.69 12.02,155.62
             10.01,156.93 7.74,158.34 7.73,161.04
             7.72,163.44 13.47,172.34 15.00,175.00
             21.67,173.05 40.03,161.73 47.00,157.60
             50.14,155.74 55.68,153.47 56.71,149.82
             57.29,147.74 57.19,142.36 56.01,140.53
             54.54,138.26 48.51,135.15 46.00,133.72
             41.73,131.29 23.20,120.18 20.00,119.55
             15.19,118.60 5.26,125.44 1.00,128.00 Z
           M 199.00,175.00
           C 200.53,172.34 206.28,163.44 206.27,161.04
             206.26,158.34 203.99,156.93 201.98,155.62
             197.49,152.69 190.06,148.45 185.00,147.00
             185.00,147.00 213.00,130.00 213.00,130.00
             213.00,130.00 213.00,128.00 213.00,128.00
             209.85,126.11 200.08,120.16 197.00,119.55
             192.82,118.72 187.54,122.55 184.00,124.58
             184.00,124.58 166.00,134.85 166.00,134.85
             163.83,136.09 159.30,138.51 157.99,140.53
             156.81,142.36 156.71,147.74 157.29,149.82
             158.32,153.47 163.86,155.74 167.00,157.60
             173.97,161.73 192.33,173.05 199.00,175.00 Z
           M 39.00,196.00
           C 39.00,196.00 83.00,171.00 83.00,171.00
             83.00,171.00 83.00,169.00 83.00,169.00
             79.68,166.83 69.52,160.05 66.00,159.89
             62.99,159.75 58.59,162.84 56.00,164.40
             52.57,166.46 40.92,172.28 39.57,175.33
             38.92,176.80 39.01,179.37 39.00,181.00
             39.00,181.00 39.00,196.00 39.00,196.00 Z
           M 131.00,169.00
           C 131.00,169.00 131.00,171.00 131.00,171.00
             131.00,171.00 175.00,196.00 175.00,196.00
             175.00,196.00 175.00,180.00 175.00,180.00
             175.00,180.00 174.01,174.53 174.01,174.53
             174.01,174.53 157.00,163.80 157.00,163.80
             157.00,163.80 148.00,159.89 148.00,159.89
             148.00,159.89 131.00,169.00 131.00,169.00 Z" />
      </symbol>

      <symbol id="icon-es-logo" viewBox="0 0 125 85" xmlns="http://www.w3.org/2000/svg">
         <path fill="rgba(144,195,73,0.8)" stroke="rgba(144,195,73,0.8)" stroke-width="1" d="M 1.00,1.00
           C 1.00,1.00 1.00,84.00 1.00,84.00
             1.00,84.00 124.00,84.00 124.00,84.00
             124.00,84.00 124.00,1.00 124.00,1.00
             124.00,1.00 1.00,1.00 1.00,1.00 Z
           M 48.00,14.00
           C 45.38,19.58 41.16,22.81 37.95,28.00
             32.27,37.18 31.66,48.49 36.90,58.00
             40.35,64.25 44.42,66.32 48.00,73.00
             48.00,73.00 24.00,73.00 24.00,73.00
             20.30,72.99 16.30,73.36 13.42,70.57
             10.74,67.98 9.45,61.65 8.73,58.00
             6.35,47.34 6.67,39.65 8.73,29.00
             9.45,25.79 10.94,19.90 12.99,17.42
             15.66,14.19 20.15,14.05 24.00,14.00
             24.00,14.00 48.00,14.00 48.00,14.00 Z
           M 74.00,73.00
           C 78.12,61.76 86.03,53.33 86.91,39.00
             87.20,34.28 85.91,30.53 85.00,26.00
             83.18,28.91 81.40,32.15 77.98,33.40
             70.64,36.08 64.51,29.09 66.43,22.00
             69.28,11.45 89.39,13.99 98.00,14.00
             102.09,14.01 106.43,13.73 109.79,16.51
             112.96,19.14 114.48,24.10 115.47,28.00
             117.51,38.00 117.61,48.00 115.47,58.00
             114.85,61.75 113.99,66.70 111.35,69.61
             108.50,72.76 104.94,72.94 101.00,73.00
             101.00,73.00 74.00,73.00 74.00,73.00 Z" />
         <path fill="rgba(255,255,255,1)" stroke="rgba(255,255,255,1)" stroke-width="1" d="M 48.00,14.00
           C 45.38,19.58 41.16,22.81 37.95,28.00
             32.27,37.18 31.66,48.49 36.90,58.00
             40.35,64.25 44.42,66.32 48.00,73.00
             48.00,73.00 24.00,73.00 24.00,73.00
             20.30,72.99 16.30,73.36 13.42,70.57
             10.74,67.98 9.45,61.65 8.73,58.00
             6.35,47.34 6.67,39.65 8.73,29.00
             9.45,25.79 10.94,19.90 12.99,17.42
             15.66,14.19 20.15,14.05 24.00,14.00
             24.00,14.00 48.00,14.00 48.00,14.00 Z
           M 74.00,73.00
           C 78.12,61.76 86.03,53.33 86.91,39.00
             87.20,34.28 85.91,30.53 85.00,26.00
             83.18,28.91 81.40,32.15 77.98,33.40
             70.64,36.08 64.51,29.09 66.43,22.00
             69.28,11.45 89.39,13.99 98.00,14.00
             102.09,14.01 106.43,13.73 109.79,16.51
             112.96,19.14 114.48,24.10 115.47,28.00
             117.51,38.00 117.61,48.00 115.47,58.00
             114.85,61.75 113.99,66.70 111.35,69.61
             108.50,72.76 104.94,72.94 101.00,73.00
             101.00,73.00 74.00,73.00 74.00,73.00 Z" />
      </symbol>
   </defs>
</svg>